<svg width="500" height="500" viewBox="0 0 500 500" xmlns="http://www.w3.org/2000/svg">
  <circle cx="250" cy="250" r="240" fill="white" stroke="#2c3e50" stroke-width="2"/>
  
  <path d="M250 380c-40 0-70-30-70-70 0-15 5-28 14-39 5-6 12-10 19-12l5-1c3 0 6 2 7 5s-1 6-4 7l-5 1c-5 1-10 5-13 10-7 9-11 20-11 32 0 31 25 56 56 56s56-25 56-56c0-12-4-23-11-32-3-5-8-9-13-10l-5-1c-3-1-5-4-4-7s4-5 7-5l5 1c7 2 14 6 19 12 9 11 14 24 14 39 0 40-30 70-70 70z" fill="#0056b3"/>
  <path d="M250 310v-60m-20 40c-10-5-20-15-20-30s10-25 20-30m40 60c10-5 20-15 20-30s-10-25-20-30" stroke="#0056b3" stroke-width="8" stroke-linecap="round"/>
  
  <path d="M250 120c15 0 30 15 30 30s-15 30-30 30-30-15-30-30 15-30 30-30zM190 150c15 0 30 15 30 30s-15 30-30 30-30-15-30-30 15-30 30-30zM310 150c15 0 30 15 30 30s-15 30-30 30-30-15-30-30 15-30 30-30z" fill="#f1c40f"/>
  <path d="M220 200c10 0 20 10 20 20s-10 20-20 20-20-10-20-20 10-20 20-20zM280 200c10 0 20 10 20 20s-10 20-20 20-20-10-20-20 10-20 20-20z" fill="#0056b3"/>

  <text x="50%" y="420" text-anchor="middle" font-family="Segoe UI, Tahoma, sans-serif" font-weight="bold" font-size="34" fill="#0056b3">TABITHA FOUNDATION</text>
  
  <text x="50%" y="455" text-anchor="middle" font-family="Segoe UI, Tahoma, sans-serif" font-size="22" fill="#2c3e50">We care about you!</text>
</svg>